<svg width="29" height="28" viewBox="0 0 29 28" fill="none" xmlns="http://www.w3.org/2000/svg">
<path fill-rule="evenodd" clip-rule="evenodd" d="M18.7591 1.16669C19.2421 1.16669 19.6341 1.55869 19.6341 2.04169L19.6346 3.0308C21.3381 3.14759 22.7529 3.73107 23.7542 4.73447C24.8473 5.8323 25.4225 7.4108 25.4167 9.3043V19.9478C25.4167 23.8351 22.948 26.2501 18.9755 26.2501H9.10784C5.13534 26.2501 2.66667 23.8013 2.66667 19.8591V9.30197C2.66667 5.63536 4.86824 3.28178 8.45881 3.0312L8.45952 2.04169C8.45952 1.55869 8.85152 1.16669 9.33452 1.16669C9.81752 1.16669 10.2095 1.55869 10.2095 2.04169L10.2092 3.00885H17.8835L17.8841 2.04169C17.8841 1.55869 18.2761 1.16669 18.7591 1.16669ZM23.6667 11.5547H4.41667V19.8591C4.41667 22.8528 6.08267 24.5001 9.10784 24.5001H18.9755C22.0007 24.5001 23.6667 22.8831 23.6667 19.9478L23.6667 11.5547ZM19.2347 18.8957C19.7177 18.8957 20.1097 19.2877 20.1097 19.7707C20.1097 20.2537 19.7177 20.6457 19.2347 20.6457C18.7517 20.6457 18.3551 20.2537 18.3551 19.7707C18.3551 19.2877 18.7412 18.8957 19.2242 18.8957H19.2347ZM14.0577 18.8957C14.5407 18.8957 14.9327 19.2877 14.9327 19.7707C14.9327 20.2537 14.5407 20.6457 14.0577 20.6457C13.5747 20.6457 13.178 20.2537 13.178 19.7707C13.178 19.2877 13.5642 18.8957 14.0472 18.8957H14.0577ZM8.86972 18.8957C9.35272 18.8957 9.74472 19.2877 9.74472 19.7707C9.74472 20.2537 9.35272 20.6457 8.86972 20.6457C8.38672 20.6457 7.98889 20.2537 7.98889 19.7707C7.98889 19.2877 8.37622 18.8957 8.85922 18.8957H8.86972ZM19.2347 14.3612C19.7177 14.3612 20.1097 14.7532 20.1097 15.2362C20.1097 15.7192 19.7177 16.1112 19.2347 16.1112C18.7517 16.1112 18.3551 15.7192 18.3551 15.2362C18.3551 14.7532 18.7412 14.3612 19.2242 14.3612H19.2347ZM14.0577 14.3612C14.5407 14.3612 14.9327 14.7532 14.9327 15.2362C14.9327 15.7192 14.5407 16.1112 14.0577 16.1112C13.5747 16.1112 13.178 15.7192 13.178 15.2362C13.178 14.7532 13.5642 14.3612 14.0472 14.3612H14.0577ZM8.86972 14.3612C9.35272 14.3612 9.74472 14.7532 9.74472 15.2362C9.74472 15.7192 9.35272 16.1112 8.86972 16.1112C8.38672 16.1112 7.98889 15.7192 7.98889 15.2362C7.98889 14.7532 8.37622 14.3612 8.85922 14.3612H8.86972ZM17.8835 4.75885H10.2092L10.2095 5.88119C10.2095 6.36419 9.81752 6.75619 9.33452 6.75619C8.85152 6.75619 8.45952 6.36419 8.45952 5.88119L8.4589 4.78534C5.8453 5.0049 4.41667 6.58919 4.41667 9.30197V9.80469H23.6667L23.6667 9.30197C23.6713 7.86114 23.284 6.74114 22.5152 5.97114C21.8403 5.29425 20.8537 4.88999 19.6351 4.7859L19.6341 5.88119C19.6341 6.36419 19.2421 6.75619 18.7591 6.75619C18.2761 6.75619 17.8841 6.36419 17.8841 5.88119L17.8835 4.75885Z" fill="#1E1E1E"/>
</svg>
