<svg width="29" height="28" viewBox="0 0 29 28" fill="none" xmlns="http://www.w3.org/2000/svg">
<path fill-rule="evenodd" clip-rule="evenodd" d="M19.842 1.16669C24.0735 1.16669 26.9167 4.13702 26.9167 8.55752V18.8592C26.9167 23.2797 24.0735 26.25 19.842 26.25H8.908C4.6765 26.25 1.83334 23.2797 1.83334 18.8592V8.55752C1.83334 4.13702 4.6765 1.16669 8.908 1.16669H19.842ZM19.842 2.91669H8.908C5.674 2.91669 3.58334 5.12985 3.58334 8.55752V18.8592C3.58334 22.2869 5.674 24.5 8.908 24.5H19.842C23.0772 24.5 25.1667 22.2869 25.1667 18.8592V8.55752C25.1667 5.12985 23.0772 2.91669 19.842 2.91669ZM8.97462 10.7363C9.45762 10.7363 9.84962 11.1283 9.84962 11.6113V19.6146C9.84962 20.0976 9.45762 20.4896 8.97462 20.4896C8.49162 20.4896 8.09962 20.0976 8.09962 19.6146V11.6113C8.09962 11.1283 8.49162 10.7363 8.97462 10.7363ZM14.4195 6.90494C14.9025 6.90494 15.2945 7.29694 15.2945 7.77994V19.6134C15.2945 20.0964 14.9025 20.4884 14.4195 20.4884C13.9365 20.4884 13.5445 20.0964 13.5445 19.6134V7.77994C13.5445 7.29694 13.9365 6.90494 14.4195 6.90494ZM19.7748 14.9654C20.2578 14.9654 20.6498 15.3574 20.6498 15.8404V19.6134C20.6498 20.0964 20.2578 20.4884 19.7748 20.4884C19.2918 20.4884 18.8998 20.0964 18.8998 19.6134V15.8404C18.8998 15.3574 19.2918 14.9654 19.7748 14.9654Z" fill="#1E1E1E"/>
</svg>
