<svg width="21" height="20" viewBox="0 0 21 20" fill="none" xmlns="http://www.w3.org/2000/svg">
<path d="M18.6712 8.36792H18V8.33334H10.5V11.6667H15.2095C14.5225 13.6071 12.6762 15 10.5 15C7.73871 15 5.49996 12.7613 5.49996 10C5.49996 7.23876 7.73871 5.00001 10.5 5.00001C11.7745 5.00001 12.9341 5.48084 13.817 6.26626L16.1741 3.90917C14.6858 2.52209 12.695 1.66667 10.5 1.66667C5.89788 1.66667 2.16663 5.39792 2.16663 10C2.16663 14.6021 5.89788 18.3333 10.5 18.3333C15.102 18.3333 18.8333 14.6021 18.8333 10C18.8333 9.44126 18.7758 8.89584 18.6712 8.36792Z" fill="#FFC107"/>
<path d="M3.12744 6.12125L5.86536 8.12917C6.60619 6.29501 8.40036 5.00001 10.4999 5.00001C11.7745 5.00001 12.9341 5.48084 13.817 6.26625L16.1741 3.90917C14.6858 2.52209 12.6949 1.66667 10.4999 1.66667C7.29911 1.66667 4.52327 3.47375 3.12744 6.12125Z" fill="#FF3D00"/>
<path d="M10.5 18.3333C12.6525 18.3333 14.6084 17.5096 16.0871 16.17L13.508 13.9875C12.6433 14.6454 11.5865 15.0012 10.5 15C8.33255 15 6.49213 13.6179 5.7988 11.6892L3.0813 13.7829C4.46047 16.4817 7.2613 18.3333 10.5 18.3333Z" fill="#4CAF50"/>
<path d="M18.6713 8.36791H18V8.33333H10.5V11.6667H15.2096C14.8809 12.5902 14.2889 13.3972 13.5067 13.9879L13.5079 13.9871L16.0871 16.1696C15.9046 16.3354 18.8333 14.1667 18.8333 9.99999C18.8333 9.44124 18.7758 8.89583 18.6713 8.36791Z" fill="#1976D2"/>
</svg>
