<svg width="24" height="24" viewBox="0 0 24 24" fill="none" xmlns="http://www.w3.org/2000/svg">
<path d="M21.0625 23.25H17.3125C15.4125 23.25 13.875 21.7125 13.875 19.8125V15.4375C13.875 15.2625 13.7375 15.125 13.5625 15.125H10.4375C10.2625 15.125 10.125 15.2625 10.125 15.4375V19.8125C10.125 21.7125 8.5875 23.25 6.6875 23.25H2.9375C1.7375 23.25 0.75 22.2625 0.75 21.0625V9.21255C0.75 8.50005 1.1 7.82505 1.6875 7.42505L10.75 1.10005C11.5 0.575049 12.5 0.575049 13.25 1.10005L22.3125 7.41255C22.9 7.82505 23.25 8.50005 23.25 9.21255V21.0625C23.25 22.2625 22.2625 23.25 21.0625 23.25ZM10.4375 13.25H13.5625C14.7625 13.25 15.75 14.2375 15.75 15.4375V19.8125C15.75 20.675 16.45 21.375 17.3125 21.375H21.0625C21.2375 21.375 21.375 21.2375 21.375 21.0625V9.21255C21.375 9.11255 21.325 9.01255 21.2375 8.95005L12.175 2.63755C12.0625 2.56255 11.925 2.56255 11.8125 2.63755L2.7625 8.96255C2.675 9.01255 2.625 9.11255 2.625 9.21255V21.0625C2.625 21.2375 2.7625 21.375 2.9375 21.375H6.6875C7.55 21.375 8.25 20.675 8.25 19.8125V15.4375C8.25 14.2375 9.2375 13.25 10.4375 13.25Z" fill="#454955"/>
</svg>
