<svg width="38" height="38" viewBox="0 0 38 38" fill="none" xmlns="http://www.w3.org/2000/svg">
<path fill-rule="evenodd" clip-rule="evenodd" d="M8.12339 0.827961C7.84679 0.908113 7.60878 0.98467 7.59441 0.998113C7.56165 1.02874 8.73578 5.66114 8.80446 5.77235C8.84125 5.83187 8.98888 5.82108 9.35126 5.73245C9.62426 5.66574 9.87507 5.58645 9.90862 5.55633C9.95417 5.5155 9.03034 1.67872 8.76258 0.796619C8.71724 0.647314 8.75302 0.645517 8.12339 0.827961ZM26.2085 0.926084C25.9547 1.10393 25.9139 1.24022 25.725 2.53983C25.6266 3.21634 25.5125 3.83275 25.4714 3.90967C25.3435 4.14868 25.0719 4.28296 24.8257 4.22883C24.6435 4.18879 24.4535 3.9804 23.7777 3.07968C22.9053 1.91666 22.7126 1.75427 22.3627 1.8874C22.2573 1.92751 21.7584 2.27213 21.2539 2.65326L20.3367 3.3463L19.6845 3.30519C17.7873 3.18579 15.7165 3.62896 13.9249 4.53801C12.7867 5.11546 11.9128 5.75222 10.9971 6.67098C9.09528 8.57924 7.97877 10.8691 7.64491 13.5459C7.56057 14.2221 7.54778 14.2571 7.38527 14.2571C7.29123 14.2571 7.12599 14.3461 7.01808 14.4547C6.85227 14.6218 6.7894 14.8113 6.6126 15.6768C6.49743 16.2402 6.37695 16.7011 6.3447 16.7011C6.31251 16.7011 5.90746 16.4354 5.44457 16.1105C4.23452 15.2612 4.33187 15.2418 2.98308 16.5997C2.07606 17.5128 1.90896 17.7147 1.90896 17.8975C1.90896 18.0511 2.08598 18.3723 2.51962 19.0057C2.85549 19.4962 3.13029 19.9152 3.13029 19.9368C3.13029 19.9584 2.66963 20.0702 2.10652 20.1855C1.24153 20.3624 1.05215 20.4253 0.885191 20.5912L0.687622 20.7875V22.2003V23.6132L0.885191 23.8096C1.0518 23.9753 1.24031 24.0384 2.08856 24.2118C2.64176 24.3249 3.10838 24.4286 3.12555 24.4423C3.14265 24.4559 2.87201 24.8855 2.52415 25.3966C1.95723 26.2296 1.89617 26.3509 1.93626 26.5645C1.97074 26.7484 2.21609 27.0378 3.00765 27.8284C4.33826 29.1575 4.23387 29.1364 5.42518 28.3155C5.9168 27.9767 6.33801 27.6995 6.36122 27.6995C6.38435 27.6995 6.49743 28.1605 6.6126 28.7239C6.7894 29.5894 6.85227 29.7789 7.01808 29.9459L7.21429 30.1436H8.62629H10.0383L10.2345 29.9459C10.4003 29.7789 10.4632 29.5894 10.64 28.7239C10.7551 28.1605 10.8682 27.6995 10.8914 27.6995C10.9146 27.6995 11.3358 27.9767 11.8274 28.3155C12.9463 29.0866 12.9821 29.087 13.7335 28.3402L14.2505 27.8263L14.2788 28.967C14.303 29.9423 14.3295 30.157 14.4615 30.4479C14.6631 30.8919 14.9319 31.2392 15.234 31.4464L15.4774 31.6132L15.5003 33.5921L15.5232 35.5709L15.7245 36.0022C15.986 36.5628 16.4047 36.9839 16.9517 37.2363C17.3822 37.435 17.4218 37.4397 18.8965 37.4639C20.5408 37.4911 21.0875 37.4274 21.5581 37.1536C21.9907 36.9019 22.3822 36.4796 22.5917 36.0382C22.778 35.6457 22.7795 35.6284 22.8031 33.63L22.8267 31.6173L23.1105 31.4188C23.2666 31.3096 23.4914 31.067 23.6102 30.8797C23.985 30.2884 24.0366 29.9819 24.0366 28.3486C24.0366 25.9643 24.2492 25.4684 25.7165 24.4299C26.6828 23.7459 26.8707 23.5741 26.7947 23.4439C26.7596 23.3838 26.5836 23.1719 26.4038 22.9732L26.0769 22.612L25.8291 22.8198C25.6928 22.9341 25.28 23.2435 24.9119 23.5074C23.8671 24.2561 23.3439 24.918 23.0187 25.9024C22.8834 26.3118 22.8591 26.593 22.8219 28.1726L22.7794 29.9756L22.5781 30.2394C22.1995 30.7357 22.274 30.7257 19.0964 30.7031L16.2417 30.6828L16.0071 30.5153C15.55 30.1891 15.5276 30.0847 15.4812 28.059C15.4341 26.0013 15.3813 25.7396 14.8467 24.9159C14.4958 24.3753 14.1651 24.0571 13.332 23.4589C12.4382 22.817 11.983 22.4198 11.381 21.7567C10.1198 20.3674 9.25334 18.5874 8.8674 16.5933C8.71861 15.8247 8.74102 13.6593 8.90569 12.8913C9.56887 9.79862 11.3886 7.28811 14.0245 5.82921C15.4001 5.06795 16.8146 4.64922 18.4508 4.51903C18.9832 4.47669 19.0076 4.48137 19.0076 4.62621C19.0076 4.84302 19.0821 4.96213 19.9138 6.07642C20.6852 7.10984 20.7896 7.361 20.5679 7.64991C20.3456 7.9396 20.2188 7.94665 18.8257 7.74638C17.3605 7.53575 17.1646 7.55373 17.0005 7.91401C16.8715 8.19745 16.3866 11.7431 16.4453 11.9738C16.5278 12.2979 16.7684 12.3885 18.0372 12.5729C18.6931 12.6683 19.3099 12.7665 19.4077 12.7911C19.7732 12.8828 19.9233 13.4169 19.6706 13.7259C19.6023 13.8094 19.0902 14.2193 18.5325 14.637C17.5131 15.4004 17.4271 15.4913 17.4271 15.806C17.4271 15.9998 19.698 19.0867 19.9333 19.2127C20.2436 19.3789 20.4284 19.2943 21.4997 18.4953C22.085 18.0588 22.6352 17.6836 22.7224 17.6616C22.9602 17.6017 23.2691 17.7315 23.3871 17.941C23.4805 18.1067 23.4739 18.2594 23.3268 19.337C23.2359 20.0025 23.1726 20.6731 23.186 20.8274C23.2272 21.3002 23.3605 21.3516 25.2639 21.6282C27.2607 21.9184 27.5739 21.9318 27.7707 21.7349C27.946 21.5595 27.9501 21.5418 28.1645 20.0438C28.325 18.9234 28.3551 18.8083 28.527 18.66C28.7138 18.4989 28.9466 18.4571 29.173 18.544C29.2385 18.5691 29.6328 19.0463 30.0491 19.6043C30.4655 20.1623 30.8708 20.6755 30.9497 20.7447C31.2845 21.0382 31.4708 20.9488 33.1606 19.6829C34.7573 18.4868 34.9409 18.2999 34.8552 17.9583C34.8345 17.8756 34.4651 17.3388 34.0343 16.7652C33.6035 16.1917 33.2299 15.6558 33.204 15.5744C33.1382 15.3665 33.2645 15.0773 33.484 14.9334C33.6603 14.8178 33.7396 14.8212 35.0292 15.0008C36.4197 15.1944 36.6188 15.1883 36.82 14.9457C36.9043 14.844 37.4649 11.3537 37.4697 10.9005C37.4706 10.8137 37.3986 10.6586 37.3097 10.5558C37.1605 10.3832 37.0409 10.3531 35.7576 10.1644C34.9008 10.0384 34.3285 9.92111 34.266 9.85871C34.0995 9.69201 34.0271 9.33424 34.1213 9.14332C34.1674 9.04994 34.6409 8.64343 35.1736 8.23994C36.253 7.42246 36.4655 7.21184 36.4655 6.95945C36.4655 6.84868 36.075 6.26231 35.3789 5.3281C34.0088 3.48914 33.995 3.47433 33.6547 3.47433C33.424 3.47433 33.2328 3.58812 32.3211 4.26808C31.7358 4.70457 31.1865 5.07952 31.1006 5.10116C30.8539 5.16334 30.5479 4.97557 30.4615 4.70903C30.4015 4.52385 30.4208 4.22402 30.5493 3.34408C30.7565 1.9255 30.757 1.80236 30.5564 1.56909C30.4032 1.39089 30.293 1.36631 28.455 1.09997C27.3881 0.945349 26.482 0.817897 26.4415 0.816747C26.4008 0.815525 26.296 0.864766 26.2085 0.926084ZM29.4066 2.49763C29.4224 2.51345 29.3813 2.89336 29.3153 3.34185C29.1443 4.50358 29.1565 4.88442 29.3793 5.32429C29.8232 6.20078 30.9151 6.58163 31.7589 6.15427C31.8779 6.09396 32.324 5.78557 32.7502 5.46892C33.1764 5.15227 33.5349 4.90549 33.547 4.92058C33.8368 5.28324 34.8983 6.73431 34.9212 6.79915C34.9391 6.84961 34.6525 7.10897 34.266 7.39206C33.1329 8.22204 32.856 8.61762 32.8556 9.40749C32.8553 10.1389 33.2801 10.788 33.9394 11.0637C34.0815 11.1232 34.6333 11.2358 35.1654 11.314C35.6976 11.3923 36.142 11.4653 36.1531 11.4764C36.1641 11.4874 36.0941 12.0125 35.9975 12.6431C35.901 13.2738 35.8213 13.8086 35.8204 13.8317C35.8196 13.8548 35.4067 13.8122 34.9029 13.737C34.3992 13.6618 33.8213 13.6158 33.6189 13.635C32.5355 13.7372 31.7924 14.7478 32.0143 15.8171C32.0792 16.1301 32.2181 16.3705 32.7355 17.0645C33.0879 17.5372 33.3763 17.9361 33.3763 17.9508C33.3763 17.9655 32.943 18.303 32.4134 18.7008L31.4506 19.4241L30.8149 18.5858C29.994 17.5032 29.7095 17.3115 28.9276 17.3138C28.2757 17.3158 27.9233 17.4725 27.5261 17.9368C27.2202 18.2943 27.099 18.683 26.9765 19.698C26.928 20.1009 26.8648 20.4686 26.8361 20.515C26.7969 20.5784 26.4966 20.5588 25.6258 20.4359C24.2915 20.2477 24.4081 20.3751 24.5755 19.289C24.737 18.2402 24.7184 17.8631 24.4826 17.4115C24.1257 16.728 23.45 16.3585 22.6977 16.4356C22.2263 16.4839 22.0192 16.5942 21.1026 17.2846L20.3528 17.8494L19.6443 16.9036C19.2546 16.3833 18.9358 15.9352 18.9358 15.9077C18.9358 15.8802 19.2905 15.5894 19.7242 15.2617C20.1578 14.9338 20.595 14.5466 20.6957 14.4011C21.302 13.5257 21.0396 12.3117 20.1285 11.7775C19.8912 11.6384 19.5715 11.5586 18.7838 11.4421C18.2154 11.3579 17.7405 11.2812 17.7285 11.2716C17.6931 11.2432 18.0192 8.97827 18.0667 8.92292C18.0905 8.8951 18.5465 8.93672 19.0798 9.01543C20.3726 9.20622 20.8273 9.11852 21.3723 8.57334C21.7038 8.24152 21.8271 7.95377 21.865 7.42282C21.9088 6.81137 21.7819 6.51916 21.0562 5.56043C20.7538 5.16089 20.5167 4.80499 20.5293 4.76955C20.5514 4.70752 22.3506 3.33056 22.4096 3.33056C22.4255 3.33056 22.7176 3.70235 23.0586 4.15666C23.3998 4.61105 23.7998 5.06148 23.9476 5.15773C24.7108 5.65453 25.611 5.5449 26.2791 4.87386C26.6027 4.54872 26.7214 4.19872 26.8757 3.11491C26.9405 2.66023 27.0041 2.25286 27.0172 2.20959C27.0337 2.15517 27.4003 2.18292 28.2094 2.29988C28.8521 2.39282 29.3908 2.48182 29.4066 2.49763ZM2.65828 4.51997C2.47371 4.77875 2.3347 4.99987 2.34928 5.0113C2.60598 5.21164 6.48213 7.95377 6.54011 7.97605C6.61274 8.00394 7.33987 7.08331 7.28405 7.03414C7.11715 6.88714 3.09293 4.04941 3.05133 4.04941C3.01972 4.04941 2.84284 4.26118 2.65828 4.51997ZM25.9308 6.60082C24.4455 6.92401 23.2232 7.88512 22.5713 9.24237C22.191 10.0342 22.0745 10.5466 22.0766 11.4176C22.0798 12.7261 22.5534 13.8529 23.5008 14.8062C23.9853 15.2937 24.1953 15.4454 24.7599 15.7158C25.6495 16.1418 26.0615 16.2348 27.0181 16.2257C27.6606 16.2195 27.9159 16.1831 28.3832 16.0309C29.7179 15.596 30.7204 14.7158 31.3362 13.4377C32.2455 11.5505 31.7686 9.17617 30.1934 7.74853C29.6537 7.25936 28.6539 6.74754 27.9521 6.60096C27.3374 6.47265 26.5201 6.47258 25.9308 6.60082ZM14.1387 7.96649C12.4235 9.21527 11.2124 11.1008 10.7909 13.1788C10.1229 16.4713 11.4735 19.8741 14.2301 21.8434C14.5462 22.0693 15.2905 22.489 15.884 22.7762C16.8732 23.2547 17.0031 23.3406 17.4405 23.8045C17.9898 24.387 18.3345 25.0406 18.4442 25.7071C18.5853 26.5649 18.5026 26.4775 19.1734 26.4775H19.7675L19.7179 25.9923C19.6503 25.3306 19.591 25.0821 19.3695 24.5342C19.1168 23.9091 18.7344 23.3454 18.2288 22.8526C17.6783 22.316 17.4165 22.1453 16.4284 21.679C15.3533 21.1717 14.7626 20.785 14.0996 20.1549C12.8849 19.0003 12.0888 17.3917 11.8914 15.6925C11.5976 13.1635 12.7074 10.5578 14.715 9.06316C14.9818 8.86462 15.1999 8.67614 15.1999 8.64429C15.1999 8.59174 14.6273 7.64365 14.5956 7.64365C14.5882 7.64365 14.3826 7.78893 14.1387 7.96649ZM27.7938 7.82258C29.0935 8.1613 30.1302 9.18947 30.4765 10.4831C30.7944 11.6709 30.4065 13.0362 29.4909 13.9523C28.0545 15.3896 25.8037 15.3808 24.356 13.9323C22.9117 12.4872 22.9226 10.2283 24.3807 8.80079C25.3308 7.87052 26.5915 7.50923 27.7938 7.82258ZM3.72824 10.6155C2.45683 10.9381 1.39671 11.2222 1.37236 11.247C1.32351 11.2966 1.53947 12.2464 1.62029 12.3374C1.65851 12.3804 5.94439 11.3669 6.41014 11.2048C6.51863 11.1669 6.23628 10.0131 6.12083 10.0225C6.07636 10.0261 4.99965 10.293 3.72824 10.6155ZM8.04278 18.134C8.10686 18.3487 8.15931 18.5314 8.15931 18.5401C8.15931 18.5487 7.98962 18.5953 7.78213 18.6436C6.31316 18.9857 5.13148 20.3302 4.95898 21.8557C4.81386 23.1389 5.53596 24.6149 6.6348 25.2812C8.3775 26.3378 10.5249 25.8863 11.644 24.2279L11.8765 23.8832L12.0835 24.0519C12.1972 24.1447 12.505 24.3716 12.7674 24.5563C13.3353 24.956 13.7634 25.4245 13.9777 25.8806L14.134 26.2132L13.4842 26.8634L12.8344 27.5136L12.1094 27.0228C11.7106 26.7529 11.2619 26.501 11.1124 26.463C10.6074 26.3347 10.0405 26.6105 9.78447 27.1088C9.7293 27.2163 9.60932 27.6681 9.51794 28.1129L9.35169 28.9216H8.62169H7.89162L7.77071 28.3125C7.51057 27.0017 7.29676 26.6516 6.65046 26.4774C6.23298 26.365 5.95135 26.4671 5.12918 27.0288L4.41901 27.5142L3.86726 26.9621L3.3155 26.4101L3.80396 25.6944C4.07266 25.3009 4.32066 24.855 4.35514 24.7038C4.49287 24.0998 4.10412 23.4679 3.48081 23.2827C3.2859 23.2248 2.85247 23.1229 2.51768 23.0564L1.90896 22.9354V22.2006V21.4657L2.71662 21.3047C3.16089 21.2162 3.60963 21.0996 3.71387 21.0456C4.17582 20.8066 4.46945 20.1978 4.35809 19.7099C4.32526 19.5658 4.08401 19.1339 3.82207 18.75C3.56013 18.3662 3.34582 18.0304 3.34582 18.0038C3.34582 17.9772 3.58685 17.716 3.88141 17.4232L4.41693 16.8909L5.17337 17.4036C5.98857 17.9561 6.25647 18.049 6.69306 17.9306C7.17369 17.8003 7.50683 17.3976 7.6212 16.809C7.67645 16.5248 7.67854 16.5286 7.80168 17.1325C7.87014 17.4685 7.9787 17.9192 8.04278 18.134ZM8.85087 20.1696C9.269 20.9953 9.73483 21.6685 10.523 22.5861L10.9161 23.0437L10.7467 23.3633C10.5138 23.8026 9.95762 24.2826 9.467 24.4678C9.13537 24.593 8.94793 24.6166 8.4826 24.5918C7.52041 24.5405 6.84451 24.0798 6.41819 23.1849C6.21753 22.7636 6.2046 22.6876 6.23485 22.1066C6.25791 21.6626 6.31308 21.386 6.42523 21.1523C6.78933 20.393 7.62738 19.816 8.39158 19.7984C8.64497 19.7926 8.67033 19.813 8.85087 20.1696ZM30.7899 24.0693V24.6804H32.9093H35.0286V24.0693V23.4583H32.9093H30.7899V24.0693ZM30.1447 27.0935C29.933 27.3546 29.7919 27.5892 29.8276 27.6208C29.863 27.6522 30.6816 28.3354 31.6467 29.139L33.4015 30.5999L33.7823 30.1741C33.9917 29.9399 34.1638 29.7248 34.1648 29.6963C34.1661 29.6567 31.2861 27.2187 30.6395 26.7121C30.5428 26.6364 30.4697 26.6927 30.1447 27.0935ZM18.5766 28.5981V29.4967H19.1872H19.7979V28.5981V27.6995H19.1872H18.5766V28.5981ZM27.1259 30.4283V32.5877H27.7376H28.3494L28.3304 30.4491L28.3113 28.3106L27.7186 28.2897L27.1259 28.2688V30.4283ZM21.594 32.5518V33.1628H19.1513H16.7086V32.5997C16.7086 32.29 16.7302 32.015 16.7566 31.9887C16.7829 31.9623 17.8821 31.9407 19.1992 31.9407H21.594V32.5518ZM21.594 34.8294C21.594 35.3828 21.4081 35.791 21.0437 36.0382C20.7841 36.2143 20.7479 36.2183 19.2287 36.2378C17.4848 36.2602 17.3719 36.2353 16.9771 35.7406C16.8161 35.5391 16.7593 35.3796 16.7289 35.0447C16.6639 34.3265 16.4467 34.3848 19.185 34.3848H21.594V34.8294Z" fill="white"/>
</svg>
