<svg width="126" height="154" viewBox="0 0 126 154" fill="none" xmlns="http://www.w3.org/2000/svg">
<path d="M81.7406 28.8496C89.7073 28.8496 96.1654 22.3915 96.1654 14.4248C96.1654 6.4581 89.7073 0 81.7406 0C73.7739 0 67.3158 6.4581 67.3158 14.4248C67.3158 22.3915 73.7739 28.8496 81.7406 28.8496ZM34.1658 95.4051L29.7181 105.779H9.61654C4.30641 105.779 0 110.085 0 115.395C0 120.706 4.30641 125.012 9.61654 125.012H32.8916C38.6765 125.012 43.8845 121.574 46.1474 116.27L48.7889 110.103L45.5824 108.21C40.3774 105.136 36.5488 100.586 34.1658 95.4051ZM115.398 67.3127H102.167L94.3352 51.3102C90.5788 43.632 83.6819 38.0184 75.7693 36.0019L54.4086 29.649C45.9039 27.6055 37.0477 29.4837 30.1148 34.7998L18.1933 43.9386C13.977 47.1691 13.1777 53.2035 16.4142 57.4197C19.6508 61.636 25.6822 62.4263 29.8954 59.1988L41.8229 50.0601C44.1279 48.29 47.0639 47.6559 49.417 48.2149L53.8346 49.5282L42.5772 75.7903C38.7847 84.6496 42.1835 95.0264 50.4808 99.9248L76.0187 115.002L67.7635 141.366C66.1768 146.433 68.9987 151.827 74.0654 153.414C75.024 153.714 75.9917 153.859 76.9443 153.859C81.0343 153.859 84.8269 151.223 86.1161 147.112L95.6244 116.742C97.4005 110.5 94.7559 103.795 89.1213 100.397L70.7176 89.536L80.1268 66.0115L86.2183 78.4619C88.6224 83.3724 93.7071 86.5428 99.1735 86.5428H115.398C120.709 86.5428 125.015 82.2364 125.015 76.9263C125.015 71.6161 120.709 67.3127 115.398 67.3127Z" fill="white"/>
</svg>
